{"asset":{"version":"2.0","generator":"babylon.js glTF exporter for Maya 2018 v20200305.4"},"scene":0,"scenes":[{"nodes":[0]}],"nodes":[{"mesh":0,"name":"polySurface37"}],"meshes":[{"primitives":[{"attributes":{"POSITION":1,"TANGENT":2,"NORMAL":3,"TEXCOORD_0":4},"indices":0,"material":0},{"attributes":{"POSITION":6,"TANGENT":7,"NORMAL":8,"TEXCOORD_0":9},"indices":5,"material":1}],"name":"polySurface37"}],"accessors":[{"bufferView":0,"componentType":5123,"count":402,"type":"SCALAR","name":"accessorIndices"},{"bufferView":1,"componentType":5126,"count":260,"max":[3.83257031,0.869308531,-8.544922E-05],"min":[-4.22712469,-0.00218787184,-53.6290627],"type":"VEC3","name":"accessorPositions"},{"bufferView":2,"componentType":5126,"count":260,"type":"VEC4","name":"accessorTangents"},{"bufferView":1,"byteOffset":3120,"componentType":5126,"count":260,"type":"VEC3","name":"accessorNormals"},{"bufferView":3,"componentType":5126,"count":260,"type":"VEC2","name":"accessorUVs"},{"bufferView":0,"byteOffset":804,"componentType":5123,"count":2181,"type":"SCALAR","name":"accessorIndices"},{"bufferView":1,"byteOffset":6240,"componentType":5126,"count":1403,"max":[7.155293,12.3951368,0.0617443845],"min":[-7.155293,-4.55219841,-64.49869],"type":"VEC3","name":"accessorPositions"},{"bufferView":2,"byteOffset":4160,"componentType":5126,"count":1403,"type":"VEC4","name":"accessorTangents"},{"bufferView":1,"byteOffset":23076,"componentType":5126,"count":1403,"type":"VEC3","name":"accessorNormals"},{"bufferView":3,"byteOffset":2080,"componentType":5126,"count":1403,"type":"VEC2","name":"accessorUVs"}],"bufferViews":[{"buffer":0,"byteLength":5168,"name":"bufferViewScalar"},{"buffer":0,"byteOffset":5168,"byteLength":39912,"byteStride":12,"name":"bufferViewFloatVec3"},{"buffer":0,"byteOffset":45080,"byteLength":26608,"byteStride":16,"name":"bufferViewFloatVec4"},{"buffer":0,"byteOffset":71688,"byteLength":13304,"byteStride":8,"name":"bufferViewFloatVec2"}],"buffers":[{"uri":"level0.bin","byteLength":84992}],"materials":[{"pbrMetallicRoughness":{"baseColorFactor":[0.0,0.5975,1.0,1.0],"metallicFactor":0.0,"roughnessFactor":0.450053632},"emissiveFactor":[0.0,0.3072,1.0],"name":"Neon_Blue"},{"pbrMetallicRoughness":{"baseColorFactor":[0.109677419,0.109677419,0.109677419,1.0],"metallicFactor":0.0,"roughnessFactor":0.450053632},"name":"lambert1"}]}