{"asset":{"version":"2.0","generator":"babylon.js glTF exporter for Maya 2018 v20200215.2"},"scene":0,"scenes":[{"nodes":[0,4],"extensions":{}}],"nodes":[{"children":[1],"name":"jets"},{"children":[2,3],"name":"jet_0"},{"translation":[0.0,0.0,0.01],"name":"contrail_loc_0"},{"mesh":0,"name":"jet_geo_0"},{"name":"Default light"}],"meshes":[{"primitives":[{"attributes":{"POSITION":1,"TANGENT":2,"NORMAL":3,"TEXCOORD_0":4},"indices":0,"material":0}],"name":"jet_geo_0"}],"accessors":[{"bufferView":0,"componentType":5123,"count":7914,"type":"SCALAR","name":"accessorIndices"},{"bufferView":1,"componentType":5126,"count":1668,"max":[0.0136777926,0.00391792646,0.009031795],"min":[-0.0136777936,-0.00391792646,-0.009031796],"type":"VEC3","name":"accessorPositions"},{"bufferView":2,"componentType":5126,"count":1668,"type":"VEC4","name":"accessorTangents"},{"bufferView":1,"byteOffset":20016,"componentType":5126,"count":1668,"type":"VEC3","name":"accessorNormals"},{"bufferView":3,"componentType":5126,"count":1668,"type":"VEC2","name":"accessorUVs"}],"bufferViews":[{"buffer":0,"byteLength":15828,"name":"bufferViewScalar"},{"buffer":0,"byteOffset":15828,"byteLength":40032,"byteStride":12,"name":"bufferViewFloatVec3"},{"buffer":0,"byteOffset":55860,"byteLength":26688,"byteStride":16,"name":"bufferViewFloatVec4"},{"buffer":0,"byteOffset":82548,"byteLength":13344,"byteStride":8,"name":"bufferViewFloatVec2"}],"buffers":[{"uri":"jet_0.bin","byteLength":95892}],"materials":[{"pbrMetallicRoughness":{"baseColorFactor":[0.9378531,0.9378531,0.9378531,1.0],"metallicFactor":0.0,"roughnessFactor":0.210833743},"emissiveFactor":[0.167832166,0.167832166,0.167832166],"name":"jet"}]}